<?xml version="1.0" encoding="UTF-8" standalone="no"?>
<!DOCTYPE svg PUBLIC "-//W3C//DTD SVG 1.1//EN"
 "http://www.w3.org/Graphics/SVG/1.1/DTD/svg11.dtd">
<!-- Generated by graphviz version 2.36.0 (20140111.2315)
 -->
<!-- Title: G Pages: 1 -->
<svg width="709pt" height="2316pt"
 viewBox="0.00 0.00 709.00 2316.00" xmlns="http://www.w3.org/2000/svg" xmlns:xlink="http://www.w3.org/1999/xlink">
<g id="graph0" class="graph" transform="scale(1 1) rotate(0) translate(4 2312)">
<title>G</title>
<polygon fill="white" stroke="none" points="-4,4 -4,-2312 705,-2312 705,4 -4,4"/>
<g id="clust1" class="cluster"><title>cluster_Global</title>
<path fill="none" stroke="gray" d="M37,-152C37,-152 681,-152 681,-152 687,-152 693,-158 693,-164 693,-164 693,-2288 693,-2288 693,-2294 687,-2300 681,-2300 681,-2300 37,-2300 37,-2300 31,-2300 25,-2294 25,-2288 25,-2288 25,-164 25,-164 25,-158 31,-152 37,-152"/>
<text text-anchor="middle" x="359" y="-2287.2" font-family="Times,serif" font-size="11.00" fill="gray">Global</text>
</g>
<g id="clust2" class="cluster"><title>cluster_\Bazalt</title>
<path fill="none" stroke="gray" d="M45,-368C45,-368 673,-368 673,-368 679,-368 685,-374 685,-380 685,-380 685,-2260 685,-2260 685,-2266 679,-2272 673,-2272 673,-2272 45,-2272 45,-2272 39,-2272 33,-2266 33,-2260 33,-2260 33,-380 33,-380 33,-374 39,-368 45,-368"/>
<text text-anchor="middle" x="359" y="-2259.2" font-family="Times,serif" font-size="11.00" fill="gray">Bazalt</text>
</g>
<g id="clust3" class="cluster"><title>cluster_\Bazalt\ORM</title>
<path fill="none" stroke="gray" d="M53,-422C53,-422 665,-422 665,-422 671,-422 677,-428 677,-434 677,-434 677,-2232 677,-2232 677,-2238 671,-2244 665,-2244 665,-2244 53,-2244 53,-2244 47,-2244 41,-2238 41,-2232 41,-2232 41,-434 41,-434 41,-428 47,-422 53,-422"/>
<text text-anchor="middle" x="359" y="-2231.2" font-family="Times,serif" font-size="11.00" fill="gray">ORM</text>
</g>
<g id="clust4" class="cluster"><title>cluster_\Bazalt\ORM\Exception</title>
<path fill="none" stroke="gray" d="M299,-1820C299,-1820 636,-1820 636,-1820 642,-1820 648,-1826 648,-1832 648,-1832 648,-2204 648,-2204 648,-2210 642,-2216 636,-2216 636,-2216 299,-2216 299,-2216 293,-2216 287,-2210 287,-2204 287,-2204 287,-1832 287,-1832 287,-1826 293,-1820 299,-1820"/>
<text text-anchor="middle" x="467.5" y="-2203.2" font-family="Times,serif" font-size="11.00" fill="gray">Exception</text>
</g>
<g id="clust5" class="cluster"><title>cluster_\Bazalt\ORM\Query</title>
<path fill="none" stroke="gray" d="M299,-1470C299,-1470 623,-1470 623,-1470 629,-1470 635,-1476 635,-1482 635,-1482 635,-1800 635,-1800 635,-1806 629,-1812 623,-1812 623,-1812 299,-1812 299,-1812 293,-1812 287,-1806 287,-1800 287,-1800 287,-1482 287,-1482 287,-1476 293,-1470 299,-1470"/>
<text text-anchor="middle" x="461" y="-1799.2" font-family="Times,serif" font-size="11.00" fill="gray">Query</text>
</g>
<g id="clust6" class="cluster"><title>cluster_\Bazalt\ORM\Adapter</title>
<path fill="none" stroke="gray" d="M282,-1282C282,-1282 623,-1282 623,-1282 629,-1282 635,-1288 635,-1294 635,-1294 635,-1450 635,-1450 635,-1456 629,-1462 623,-1462 623,-1462 282,-1462 282,-1462 276,-1462 270,-1456 270,-1450 270,-1450 270,-1294 270,-1294 270,-1288 276,-1282 282,-1282"/>
<text text-anchor="middle" x="452.5" y="-1449.2" font-family="Times,serif" font-size="11.00" fill="gray">Adapter</text>
</g>
<g id="clust7" class="cluster"><title>cluster_\Bazalt\ORM\Generator</title>
<path fill="none" stroke="gray" d="M573,-1202C573,-1202 623,-1202 623,-1202 629,-1202 635,-1208 635,-1214 635,-1214 635,-1262 635,-1262 635,-1268 629,-1274 623,-1274 623,-1274 573,-1274 573,-1274 567,-1274 561,-1268 561,-1262 561,-1262 561,-1214 561,-1214 561,-1208 567,-1202 573,-1202"/>
<text text-anchor="middle" x="598" y="-1261.2" font-family="Times,serif" font-size="11.00" fill="gray">Generator</text>
</g>
<g id="clust8" class="cluster"><title>cluster_\Bazalt\ORM\Connection</title>
<path fill="none" stroke="gray" d="M272,-1068C272,-1068 626,-1068 626,-1068 632,-1068 638,-1074 638,-1080 638,-1080 638,-1182 638,-1182 638,-1188 632,-1194 626,-1194 626,-1194 272,-1194 272,-1194 266,-1194 260,-1188 260,-1182 260,-1182 260,-1080 260,-1080 260,-1074 266,-1068 272,-1068"/>
<text text-anchor="middle" x="449" y="-1181.2" font-family="Times,serif" font-size="11.00" fill="gray">Connection</text>
</g>
<g id="clust9" class="cluster"><title>cluster_\Bazalt\ORM\Relation</title>
<path fill="none" stroke="gray" d="M278,-826C278,-826 633,-826 633,-826 639,-826 645,-832 645,-838 645,-838 645,-1048 645,-1048 645,-1054 639,-1060 633,-1060 633,-1060 278,-1060 278,-1060 272,-1060 266,-1054 266,-1048 266,-1048 266,-838 266,-838 266,-832 272,-826 278,-826"/>
<text text-anchor="middle" x="455.5" y="-1047.2" font-family="Times,serif" font-size="11.00" fill="gray">Relation</text>
</g>
<g id="clust10" class="cluster"><title>cluster_\Bazalt\ORM\Plugin</title>
<path fill="none" stroke="gray" d="M285,-638C285,-638 657,-638 657,-638 663,-638 669,-644 669,-650 669,-650 669,-806 669,-806 669,-812 663,-818 657,-818 657,-818 285,-818 285,-818 279,-818 273,-812 273,-806 273,-806 273,-650 273,-650 273,-644 279,-638 285,-638"/>
<text text-anchor="middle" x="471" y="-805.2" font-family="Times,serif" font-size="11.00" fill="gray">Plugin</text>
</g>
<!-- \\Bazalt\\ORM\\Exception\\Insert -->
<g id="node1" class="node"><title>\\Bazalt\\ORM\\Exception\\Insert</title>
<polygon fill="none" stroke="black" points="626.5,-2188 569.5,-2188 569.5,-2152 626.5,-2152 626.5,-2188"/>
<text text-anchor="middle" x="598" y="-2167.2" font-family="Courier,monospace" font-size="11.00">Insert</text>
</g>
<!-- \\Bazalt\\ORM\\Exception\\Base -->
<g id="node4" class="node"><title>\\Bazalt\\ORM\\Exception\\Base</title>
<polygon fill="none" stroke="black" points="379,-1999 295,-1999 295,-1963 379,-1963 379,-1999"/>
<text text-anchor="start" x="303" y="-1984.2" font-family="Courier,monospace" font-size="11.00">«abstract»</text>
<text text-anchor="start" x="323" y="-1972.2" font-family="Courier,monospace" font-size="11.00">Base</text>
</g>
<!-- \\Bazalt\\ORM\\Exception\\Insert&#45;&gt;\\Bazalt\\ORM\\Exception\\Base -->
<g id="edge1" class="edge"><title>\\Bazalt\\ORM\\Exception\\Insert&#45;&gt;\\Bazalt\\ORM\\Exception\\Base</title>
<path fill="none" stroke="black" d="M569.17,-2162.72C554.541,-2158.23 536.654,-2151.66 522,-2143 456.935,-2104.55 393.605,-2041.5 360.908,-2006.47"/>
<polygon fill="none" stroke="black" points="363.385,-2004 354.027,-1999.03 358.245,-2008.75 363.385,-2004"/>
</g>
<!-- \\Bazalt\\ORM\\Exception\\Database -->
<g id="node2" class="node"><title>\\Bazalt\\ORM\\Exception\\Database</title>
<polygon fill="none" stroke="black" points="633.5,-2134 562.5,-2134 562.5,-2098 633.5,-2098 633.5,-2134"/>
<text text-anchor="middle" x="598" y="-2113.2" font-family="Courier,monospace" font-size="11.00">Database</text>
</g>
<!-- \\Bazalt\\ORM\\Exception\\Database&#45;&gt;\\Bazalt\\ORM\\Exception\\Base -->
<g id="edge2" class="edge"><title>\\Bazalt\\ORM\\Exception\\Database&#45;&gt;\\Bazalt\\ORM\\Exception\\Base</title>
<path fill="none" stroke="black" d="M562.485,-2105.08C549.57,-2100.6 534.907,-2095.05 522,-2089 468.507,-2063.94 410.252,-2028.19 373.93,-2004.79"/>
<polygon fill="none" stroke="black" points="375.48,-2001.62 365.184,-1999.12 371.673,-2007.5 375.48,-2001.62"/>
</g>
<!-- \\Bazalt\\ORM\\Exception\\Query -->
<g id="node3" class="node"><title>\\Bazalt\\ORM\\Exception\\Query</title>
<polygon fill="none" stroke="black" points="625,-2080 571,-2080 571,-2044 625,-2044 625,-2080"/>
<text text-anchor="middle" x="598" y="-2059.2" font-family="Courier,monospace" font-size="11.00">Query</text>
</g>
<!-- \\Bazalt\\ORM\\Exception\\Query&#45;&gt;\\Bazalt\\ORM\\Exception\\Base -->
<g id="edge3" class="edge"><title>\\Bazalt\\ORM\\Exception\\Query&#45;&gt;\\Bazalt\\ORM\\Exception\\Base</title>
<path fill="none" stroke="black" d="M570.74,-2053.79C528.245,-2040.5 443.662,-2014.04 389.015,-1996.95"/>
<polygon fill="none" stroke="black" points="389.766,-1993.52 379.177,-1993.88 387.676,-2000.2 389.766,-1993.52"/>
</g>
<!-- \\Exception -->
<g id="node47" class="node"><title>\\Exception</title>
<ellipse fill="none" stroke="black" cx="76" cy="-126" rx="48.9926" ry="18"/>
<text text-anchor="middle" x="76" y="-122.3" font-family="Times,serif" font-size="14.00" fill="gray">\Exception</text>
</g>
<!-- \\Bazalt\\ORM\\Exception\\Base&#45;&gt;\\Exception -->
<g id="edge4" class="edge"><title>\\Bazalt\\ORM\\Exception\\Base&#45;&gt;\\Exception</title>
<path fill="none" stroke="black" d="M318.362,-1962.58C292.202,-1933.93 244.055,-1875.74 224,-1816 124.994,-1521.1 198.929,-725.518 152,-418 136.894,-319.01 102.478,-204.891 86.0509,-153.544"/>
<polygon fill="none" stroke="black" points="89.3252,-152.293 82.9241,-143.851 82.6632,-154.442 89.3252,-152.293"/>
</g>
<!-- \\Bazalt\\ORM\\Exception\\Collection -->
<g id="node5" class="node"><title>\\Bazalt\\ORM\\Exception\\Collection</title>
<polygon fill="none" stroke="black" points="640,-2026 556,-2026 556,-1990 640,-1990 640,-2026"/>
<text text-anchor="middle" x="598" y="-2005.2" font-family="Courier,monospace" font-size="11.00">Collection</text>
</g>
<!-- \\Bazalt\\ORM\\Exception\\Collection&#45;&gt;\\Bazalt\\ORM\\Exception\\Base -->
<g id="edge5" class="edge"><title>\\Bazalt\\ORM\\Exception\\Collection&#45;&gt;\\Bazalt\\ORM\\Exception\\Base</title>
<path fill="none" stroke="black" d="M555.961,-2003.72C510.817,-1999.02 438.201,-1991.45 389.326,-1986.35"/>
<polygon fill="none" stroke="black" points="389.584,-1982.86 379.275,-1985.3 388.858,-1989.82 389.584,-1982.86"/>
</g>
<!-- \\Bazalt\\ORM\\Exception\\Model -->
<g id="node6" class="node"><title>\\Bazalt\\ORM\\Exception\\Model</title>
<polygon fill="none" stroke="black" points="625,-1972 571,-1972 571,-1936 625,-1936 625,-1972"/>
<text text-anchor="middle" x="598" y="-1951.2" font-family="Courier,monospace" font-size="11.00">Model</text>
</g>
<!-- \\Bazalt\\ORM\\Exception\\Model&#45;&gt;\\Bazalt\\ORM\\Exception\\Base -->
<g id="edge6" class="edge"><title>\\Bazalt\\ORM\\Exception\\Model&#45;&gt;\\Bazalt\\ORM\\Exception\\Base</title>
<path fill="none" stroke="black" d="M570.74,-1956.74C528.333,-1961.16 444.012,-1969.95 389.356,-1975.65"/>
<polygon fill="none" stroke="black" points="388.76,-1972.19 379.177,-1976.71 389.486,-1979.15 388.76,-1972.19"/>
</g>
<!-- \\Bazalt\\ORM\\Exception\\Table -->
<g id="node7" class="node"><title>\\Bazalt\\ORM\\Exception\\Table</title>
<polygon fill="none" stroke="black" points="625,-1918 571,-1918 571,-1882 625,-1882 625,-1918"/>
<text text-anchor="middle" x="598" y="-1897.2" font-family="Courier,monospace" font-size="11.00">Table</text>
</g>
<!-- \\Bazalt\\ORM\\Exception\\Table&#45;&gt;\\Bazalt\\ORM\\Exception\\Base -->
<g id="edge7" class="edge"><title>\\Bazalt\\ORM\\Exception\\Table&#45;&gt;\\Bazalt\\ORM\\Exception\\Base</title>
<path fill="none" stroke="black" d="M570.74,-1908.21C528.245,-1921.5 443.662,-1947.96 389.015,-1965.05"/>
<polygon fill="none" stroke="black" points="387.676,-1961.8 379.177,-1968.12 389.766,-1968.48 387.676,-1961.8"/>
</g>
<!-- \\Bazalt\\ORM\\Exception\\NestedSet -->
<g id="node8" class="node"><title>\\Bazalt\\ORM\\Exception\\NestedSet</title>
<polygon fill="none" stroke="black" points="636.5,-1864 559.5,-1864 559.5,-1828 636.5,-1828 636.5,-1864"/>
<text text-anchor="middle" x="598" y="-1843.2" font-family="Courier,monospace" font-size="11.00">NestedSet</text>
</g>
<!-- \\Bazalt\\ORM\\Exception\\NestedSet&#45;&gt;\\Bazalt\\ORM\\Exception\\Base -->
<g id="edge8" class="edge"><title>\\Bazalt\\ORM\\Exception\\NestedSet&#45;&gt;\\Bazalt\\ORM\\Exception\\Base</title>
<path fill="none" stroke="black" d="M559.445,-1857.99C547.303,-1862.27 533.905,-1867.42 522,-1873 468.507,-1898.06 410.252,-1933.81 373.93,-1957.21"/>
<polygon fill="none" stroke="black" points="371.673,-1954.5 365.184,-1962.88 375.48,-1960.38 371.673,-1954.5"/>
</g>
<!-- \\Bazalt\\ORM\\Query\\Insert -->
<g id="node9" class="node"><title>\\Bazalt\\ORM\\Query\\Insert</title>
<polygon fill="none" stroke="black" points="626.5,-1784 569.5,-1784 569.5,-1748 626.5,-1748 626.5,-1784"/>
<text text-anchor="middle" x="598" y="-1763.2" font-family="Courier,monospace" font-size="11.00">Insert</text>
</g>
<!-- \\Bazalt\\ORM\\Query\\Builder -->
<g id="node15" class="node"><title>\\Bazalt\\ORM\\Query\\Builder</title>
<polygon fill="none" stroke="black" points="379,-1649 295,-1649 295,-1613 379,-1613 379,-1649"/>
<text text-anchor="start" x="303" y="-1634.2" font-family="Courier,monospace" font-size="11.00">«abstract»</text>
<text text-anchor="start" x="313" y="-1622.2" font-family="Courier,monospace" font-size="11.00">Builder</text>
</g>
<!-- \\Bazalt\\ORM\\Query\\Insert&#45;&gt;\\Bazalt\\ORM\\Query\\Builder -->
<g id="edge9" class="edge"><title>\\Bazalt\\ORM\\Query\\Insert&#45;&gt;\\Bazalt\\ORM\\Query\\Builder</title>
<path fill="none" stroke="black" d="M569.432,-1757.44C555.039,-1752.63 537.288,-1746.16 522,-1739 468.507,-1713.94 410.252,-1678.19 373.93,-1654.79"/>
<polygon fill="none" stroke="black" points="375.48,-1651.62 365.184,-1649.12 371.673,-1657.5 375.48,-1651.62"/>
</g>
<!-- \\Bazalt\\ORM\\Query\\Join -->
<g id="node10" class="node"><title>\\Bazalt\\ORM\\Query\\Join</title>
<polygon fill="none" stroke="black" points="625,-1730 571,-1730 571,-1694 625,-1694 625,-1730"/>
<text text-anchor="middle" x="598" y="-1709.2" font-family="Courier,monospace" font-size="11.00">Join</text>
</g>
<!-- \\Bazalt\\ORM\\Query\\Join&#45;&gt;\\Bazalt\\ORM\\Query\\Builder -->
<g id="edge10" class="edge"><title>\\Bazalt\\ORM\\Query\\Join&#45;&gt;\\Bazalt\\ORM\\Query\\Builder</title>
<path fill="none" stroke="black" d="M570.74,-1703.79C528.245,-1690.5 443.662,-1664.04 389.015,-1646.95"/>
<polygon fill="none" stroke="black" points="389.766,-1643.52 379.177,-1643.88 387.676,-1650.2 389.766,-1643.52"/>
</g>
<!-- \\Bazalt\\ORM\\Query\\Update -->
<g id="node11" class="node"><title>\\Bazalt\\ORM\\Query\\Update</title>
<polygon fill="none" stroke="black" points="626.5,-1676 569.5,-1676 569.5,-1640 626.5,-1640 626.5,-1676"/>
<text text-anchor="middle" x="598" y="-1655.2" font-family="Courier,monospace" font-size="11.00">Update</text>
</g>
<!-- \\Bazalt\\ORM\\Query\\Update&#45;&gt;\\Bazalt\\ORM\\Query\\Builder -->
<g id="edge11" class="edge"><title>\\Bazalt\\ORM\\Query\\Update&#45;&gt;\\Bazalt\\ORM\\Query\\Builder</title>
<path fill="none" stroke="black" d="M569.282,-1655.11C526.374,-1650.64 443.19,-1641.97 389.158,-1636.33"/>
<polygon fill="none" stroke="black" points="389.402,-1632.84 379.093,-1635.28 388.676,-1639.8 389.402,-1632.84"/>
</g>
<!-- \\Bazalt\\ORM\\Query\\Union -->
<g id="node12" class="node"><title>\\Bazalt\\ORM\\Query\\Union</title>
<polygon fill="none" stroke="black" points="625,-1622 571,-1622 571,-1586 625,-1586 625,-1622"/>
<text text-anchor="middle" x="598" y="-1601.2" font-family="Courier,monospace" font-size="11.00">Union</text>
</g>
<!-- \\Bazalt\\ORM\\Query\\Union&#45;&gt;\\Bazalt\\ORM\\Query\\Builder -->
<g id="edge12" class="edge"><title>\\Bazalt\\ORM\\Query\\Union&#45;&gt;\\Bazalt\\ORM\\Query\\Builder</title>
<path fill="none" stroke="black" d="M570.74,-1606.74C528.333,-1611.16 444.012,-1619.95 389.356,-1625.65"/>
<polygon fill="none" stroke="black" points="388.76,-1622.19 379.177,-1626.71 389.486,-1629.15 388.76,-1622.19"/>
</g>
<!-- \\Bazalt\\ORM\\Query\\Select -->
<g id="node13" class="node"><title>\\Bazalt\\ORM\\Query\\Select</title>
<polygon fill="none" stroke="black" points="626.5,-1568 569.5,-1568 569.5,-1532 626.5,-1532 626.5,-1568"/>
<text text-anchor="middle" x="598" y="-1547.2" font-family="Courier,monospace" font-size="11.00">Select</text>
</g>
<!-- \\Bazalt\\ORM\\Query\\Select&#45;&gt;\\Bazalt\\ORM\\Query\\Builder -->
<g id="edge13" class="edge"><title>\\Bazalt\\ORM\\Query\\Select&#45;&gt;\\Bazalt\\ORM\\Query\\Builder</title>
<path fill="none" stroke="black" d="M569.282,-1558.67C526.284,-1572.12 442.844,-1598.21 388.821,-1615.11"/>
<polygon fill="none" stroke="black" points="387.592,-1611.82 379.093,-1618.15 389.682,-1618.5 387.592,-1611.82"/>
</g>
<!-- \\Bazalt\\ORM\\Query\\Delete -->
<g id="node14" class="node"><title>\\Bazalt\\ORM\\Query\\Delete</title>
<polygon fill="none" stroke="black" points="626.5,-1514 569.5,-1514 569.5,-1478 626.5,-1478 626.5,-1514"/>
<text text-anchor="middle" x="598" y="-1493.2" font-family="Courier,monospace" font-size="11.00">Delete</text>
</g>
<!-- \\Bazalt\\ORM\\Query\\Delete&#45;&gt;\\Bazalt\\ORM\\Query\\Builder -->
<g id="edge14" class="edge"><title>\\Bazalt\\ORM\\Query\\Delete&#45;&gt;\\Bazalt\\ORM\\Query\\Builder</title>
<path fill="none" stroke="black" d="M569.432,-1504.56C555.039,-1509.37 537.288,-1515.84 522,-1523 468.507,-1548.06 410.252,-1583.81 373.93,-1607.21"/>
<polygon fill="none" stroke="black" points="371.673,-1604.5 365.184,-1612.88 375.48,-1610.38 371.673,-1604.5"/>
</g>
<!-- \\Bazalt\\ORM\\Query -->
<g id="node36" class="node"><title>\\Bazalt\\ORM\\Query</title>
<polygon fill="none" stroke="black" points="103,-1649 49,-1649 49,-1613 103,-1613 103,-1649"/>
<text text-anchor="middle" x="76" y="-1628.2" font-family="Courier,monospace" font-size="11.00">Query</text>
</g>
<!-- \\Bazalt\\ORM\\Query\\Builder&#45;&gt;\\Bazalt\\ORM\\Query -->
<g id="edge15" class="edge"><title>\\Bazalt\\ORM\\Query\\Builder&#45;&gt;\\Bazalt\\ORM\\Query</title>
<path fill="none" stroke="black" d="M294.961,-1631C244.967,-1631 161.28,-1631 113.458,-1631"/>
<polygon fill="none" stroke="black" points="113.253,-1627.5 103.253,-1631 113.253,-1634.5 113.253,-1627.5"/>
</g>
<!-- \\Bazalt\\ORM\\Adapter\\Mssql -->
<g id="node16" class="node"><title>\\Bazalt\\ORM\\Adapter\\Mssql</title>
<polygon fill="none" stroke="black" points="625,-1434 571,-1434 571,-1398 625,-1398 625,-1434"/>
<text text-anchor="middle" x="598" y="-1413.2" font-family="Courier,monospace" font-size="11.00">Mssql</text>
</g>
<!-- \\Bazalt\\ORM\\Adapter\\AbstractAdapter -->
<g id="node17" class="node"><title>\\Bazalt\\ORM\\Adapter\\AbstractAdapter</title>
<polygon fill="none" stroke="black" points="396,-1380 278,-1380 278,-1344 396,-1344 396,-1380"/>
<text text-anchor="start" x="303" y="-1365.2" font-family="Courier,monospace" font-size="11.00">«abstract»</text>
<text text-anchor="start" x="286" y="-1353.2" font-family="Courier,monospace" font-size="11.00">AbstractAdapter</text>
</g>
<!-- \\Bazalt\\ORM\\Adapter\\Mssql&#45;&gt;\\Bazalt\\ORM\\Adapter\\AbstractAdapter -->
<g id="edge16" class="edge"><title>\\Bazalt\\ORM\\Adapter\\Mssql&#45;&gt;\\Bazalt\\ORM\\Adapter\\AbstractAdapter</title>
<path fill="none" stroke="black" d="M570.74,-1410.53C532.422,-1402.54 459.883,-1387.41 405.928,-1376.16"/>
<polygon fill="none" stroke="black" points="406.586,-1372.72 396.082,-1374.11 405.158,-1379.58 406.586,-1372.72"/>
</g>
<!-- \\Bazalt\\ORM\\Adapter\\Mysql -->
<g id="node18" class="node"><title>\\Bazalt\\ORM\\Adapter\\Mysql</title>
<polygon fill="none" stroke="black" points="625,-1380 571,-1380 571,-1344 625,-1344 625,-1380"/>
<text text-anchor="middle" x="598" y="-1359.2" font-family="Courier,monospace" font-size="11.00">Mysql</text>
</g>
<!-- \\Bazalt\\ORM\\Adapter\\Mysql&#45;&gt;\\Bazalt\\ORM\\Adapter\\AbstractAdapter -->
<g id="edge17" class="edge"><title>\\Bazalt\\ORM\\Adapter\\Mysql&#45;&gt;\\Bazalt\\ORM\\Adapter\\AbstractAdapter</title>
<path fill="none" stroke="black" d="M570.74,-1362C532.502,-1362 460.183,-1362 406.264,-1362"/>
<polygon fill="none" stroke="black" points="406.082,-1358.5 396.082,-1362 406.082,-1365.5 406.082,-1358.5"/>
</g>
<!-- \\Bazalt\\ORM\\Adapter\\Sqlite -->
<g id="node19" class="node"><title>\\Bazalt\\ORM\\Adapter\\Sqlite</title>
<polygon fill="none" stroke="black" points="626.5,-1326 569.5,-1326 569.5,-1290 626.5,-1290 626.5,-1326"/>
<text text-anchor="middle" x="598" y="-1305.2" font-family="Courier,monospace" font-size="11.00">Sqlite</text>
</g>
<!-- \\Bazalt\\ORM\\Adapter\\Sqlite&#45;&gt;\\Bazalt\\ORM\\Adapter\\AbstractAdapter -->
<g id="edge18" class="edge"><title>\\Bazalt\\ORM\\Adapter\\Sqlite&#45;&gt;\\Bazalt\\ORM\\Adapter\\AbstractAdapter</title>
<path fill="none" stroke="black" d="M569.282,-1313.78C530.665,-1321.83 459.424,-1336.68 406.173,-1347.79"/>
<polygon fill="none" stroke="black" points="405.19,-1344.42 396.115,-1349.88 406.618,-1351.27 405.19,-1344.42"/>
</g>
<!-- \\Bazalt\\ORM\\Generator\\Models -->
<g id="node20" class="node"><title>\\Bazalt\\ORM\\Generator\\Models</title>
<polygon fill="none" stroke="black" points="626.5,-1246 569.5,-1246 569.5,-1210 626.5,-1210 626.5,-1246"/>
<text text-anchor="middle" x="598" y="-1225.2" font-family="Courier,monospace" font-size="11.00">Models</text>
</g>
<!-- \\Bazalt\\ORM\\Connection\\Mysql -->
<g id="node21" class="node"><title>\\Bazalt\\ORM\\Connection\\Mysql</title>
<polygon fill="none" stroke="black" points="625,-1166 571,-1166 571,-1130 625,-1130 625,-1166"/>
<text text-anchor="middle" x="598" y="-1145.2" font-family="Courier,monospace" font-size="11.00">Mysql</text>
</g>
<!-- \\Bazalt\\ORM\\Connection\\AbstractConnection -->
<g id="node22" class="node"><title>\\Bazalt\\ORM\\Connection\\AbstractConnection</title>
<polygon fill="none" stroke="black" points="406,-1166 268,-1166 268,-1130 406,-1130 406,-1166"/>
<text text-anchor="start" x="303" y="-1151.2" font-family="Courier,monospace" font-size="11.00">«abstract»</text>
<text text-anchor="start" x="276" y="-1139.2" font-family="Courier,monospace" font-size="11.00">AbstractConnection</text>
</g>
<!-- \\Bazalt\\ORM\\Connection\\Mysql&#45;&gt;\\Bazalt\\ORM\\Connection\\AbstractConnection -->
<g id="edge21" class="edge"><title>\\Bazalt\\ORM\\Connection\\Mysql&#45;&gt;\\Bazalt\\ORM\\Connection\\AbstractConnection</title>
<path fill="none" stroke="black" d="M570.74,-1148C534.872,-1148 469.018,-1148 416.49,-1148"/>
<polygon fill="none" stroke="black" points="416.176,-1144.5 406.176,-1148 416.175,-1151.5 416.176,-1144.5"/>
</g>
<!-- \\Bazalt\\ORM\\Connection\\Manager -->
<g id="node23" class="node"><title>\\Bazalt\\ORM\\Connection\\Manager</title>
<polygon fill="none" stroke="black" points="630,-1112 566,-1112 566,-1076 630,-1076 630,-1112"/>
<text text-anchor="middle" x="598" y="-1091.2" font-family="Courier,monospace" font-size="11.00">Manager</text>
</g>
<!-- \\Bazalt\\ORM\\Relation\\One2Many -->
<g id="node24" class="node"><title>\\Bazalt\\ORM\\Relation\\One2Many</title>
<polygon fill="none" stroke="black" points="633.5,-978 562.5,-978 562.5,-942 633.5,-942 633.5,-978"/>
<text text-anchor="middle" x="598" y="-957.2" font-family="Courier,monospace" font-size="11.00">One2Many</text>
</g>
<!-- \\Bazalt\\ORM\\Relation\\AbstractRelation -->
<g id="node28" class="node"><title>\\Bazalt\\ORM\\Relation\\AbstractRelation</title>
<polygon fill="none" stroke="black" points="399.5,-958 274.5,-958 274.5,-922 399.5,-922 399.5,-958"/>
<text text-anchor="start" x="303" y="-943.2" font-family="Courier,monospace" font-size="11.00">«abstract»</text>
<text text-anchor="start" x="282.5" y="-931.2" font-family="Courier,monospace" font-size="11.00">AbstractRelation</text>
</g>
<!-- \\Bazalt\\ORM\\Relation\\One2Many&#45;&gt;\\Bazalt\\ORM\\Relation\\AbstractRelation -->
<g id="edge26" class="edge"><title>\\Bazalt\\ORM\\Relation\\One2Many&#45;&gt;\\Bazalt\\ORM\\Relation\\AbstractRelation</title>
<path fill="none" stroke="black" d="M562.339,-957.323C523.458,-954.321 459.329,-949.369 409.572,-945.527"/>
<polygon fill="none" stroke="black" points="409.745,-942.03 399.505,-944.749 409.206,-949.009 409.745,-942.03"/>
</g>
<!-- \\Bazalt\\ORM\\Relation\\IRelationMany -->
<g id="node29" class="node"><title>\\Bazalt\\ORM\\Relation\\IRelationMany</title>
<polygon fill="none" stroke="black" points="389,-877 285,-877 285,-841 389,-841 389,-877"/>
<text text-anchor="middle" x="337" y="-856.2" font-family="Courier,monospace" font-size="11.00">IRelationMany</text>
</g>
<!-- \\Bazalt\\ORM\\Relation\\One2Many&#45;&gt;\\Bazalt\\ORM\\Relation\\IRelationMany -->
<g id="edge27" class="edge"><title>\\Bazalt\\ORM\\Relation\\One2Many&#45;&gt;\\Bazalt\\ORM\\Relation\\IRelationMany</title>
<path fill="none" stroke="black" stroke-dasharray="1,5" d="M562.176,-947.764C549.491,-943.228 535.062,-937.976 522,-933 477.696,-916.123 427.819,-895.992 391.182,-880.991"/>
<polygon fill="none" stroke="black" points="392.271,-877.655 381.691,-877.098 389.615,-884.131 392.271,-877.655"/>
</g>
<!-- \\Bazalt\\ORM\\Relation\\One2One -->
<g id="node25" class="node"><title>\\Bazalt\\ORM\\Relation\\One2One</title>
<polygon fill="none" stroke="black" points="630,-1032 566,-1032 566,-996 630,-996 630,-1032"/>
<text text-anchor="middle" x="598" y="-1011.2" font-family="Courier,monospace" font-size="11.00">One2One</text>
</g>
<!-- \\Bazalt\\ORM\\Relation\\One2One&#45;&gt;\\Bazalt\\ORM\\Relation\\AbstractRelation -->
<g id="edge28" class="edge"><title>\\Bazalt\\ORM\\Relation\\One2One&#45;&gt;\\Bazalt\\ORM\\Relation\\AbstractRelation</title>
<path fill="none" stroke="black" d="M565.759,-1005.07C527.271,-994.077 460.692,-975.055 409.427,-960.408"/>
<polygon fill="none" stroke="black" points="410.294,-957.016 399.718,-957.634 408.371,-963.746 410.294,-957.016"/>
</g>
<!-- \\Bazalt\\ORM\\Relation\\IRelationOne -->
<g id="node30" class="node"><title>\\Bazalt\\ORM\\Relation\\IRelationOne</title>
<polygon fill="none" stroke="black" points="386,-1025 288,-1025 288,-989 386,-989 386,-1025"/>
<text text-anchor="middle" x="337" y="-1004.2" font-family="Courier,monospace" font-size="11.00">IRelationOne</text>
</g>
<!-- \\Bazalt\\ORM\\Relation\\One2One&#45;&gt;\\Bazalt\\ORM\\Relation\\IRelationOne -->
<g id="edge29" class="edge"><title>\\Bazalt\\ORM\\Relation\\One2One&#45;&gt;\\Bazalt\\ORM\\Relation\\IRelationOne</title>
<path fill="none" stroke="black" stroke-dasharray="1,5" d="M565.759,-1013.16C523.882,-1012.02 448.751,-1009.99 396.272,-1008.57"/>
<polygon fill="none" stroke="black" points="396.186,-1005.07 386.095,-1008.3 395.996,-1012.07 396.186,-1005.07"/>
</g>
<!-- \\Bazalt\\ORM\\Relation\\Many2Many -->
<g id="node26" class="node"><title>\\Bazalt\\ORM\\Relation\\Many2Many</title>
<polygon fill="none" stroke="black" points="636.5,-924 559.5,-924 559.5,-888 636.5,-888 636.5,-924"/>
<text text-anchor="middle" x="598" y="-903.2" font-family="Courier,monospace" font-size="11.00">Many2Many</text>
</g>
<!-- \\Bazalt\\ORM\\Relation\\Many2Many&#45;&gt;\\Bazalt\\ORM\\Relation\\AbstractRelation -->
<g id="edge30" class="edge"><title>\\Bazalt\\ORM\\Relation\\Many2Many&#45;&gt;\\Bazalt\\ORM\\Relation\\AbstractRelation</title>
<path fill="none" stroke="black" d="M559.339,-910.944C520.306,-916.068 458.34,-924.202 409.888,-930.563"/>
<polygon fill="none" stroke="black" points="409.226,-927.12 399.767,-931.892 410.138,-934.06 409.226,-927.12"/>
</g>
<!-- \\Bazalt\\ORM\\Relation\\Many2Many&#45;&gt;\\Bazalt\\ORM\\Relation\\IRelationMany -->
<g id="edge31" class="edge"><title>\\Bazalt\\ORM\\Relation\\Many2Many&#45;&gt;\\Bazalt\\ORM\\Relation\\IRelationMany</title>
<path fill="none" stroke="black" stroke-dasharray="1,5" d="M559.339,-899.166C517.337,-891.544 448.779,-879.103 399.081,-870.084"/>
<polygon fill="none" stroke="black" points="399.557,-866.613 389.093,-868.272 398.307,-873.501 399.557,-866.613"/>
</g>
<!-- \\Bazalt\\ORM\\Relation\\NestedSet -->
<g id="node27" class="node"><title>\\Bazalt\\ORM\\Relation\\NestedSet</title>
<polygon fill="none" stroke="black" points="636.5,-870 559.5,-870 559.5,-834 636.5,-834 636.5,-870"/>
<text text-anchor="middle" x="598" y="-849.2" font-family="Courier,monospace" font-size="11.00">NestedSet</text>
</g>
<!-- \\Bazalt\\ORM\\Relation\\NestedSet&#45;&gt;\\Bazalt\\ORM\\Relation\\AbstractRelation -->
<g id="edge32" class="edge"><title>\\Bazalt\\ORM\\Relation\\NestedSet&#45;&gt;\\Bazalt\\ORM\\Relation\\AbstractRelation</title>
<path fill="none" stroke="black" d="M559.339,-864.796C517.776,-878.918 450.208,-901.875 400.643,-918.716"/>
<polygon fill="none" stroke="black" points="399.326,-915.467 390.984,-921.998 401.578,-922.095 399.326,-915.467"/>
</g>
<!-- \\Bazalt\\ORM\\Relation\\NestedSet&#45;&gt;\\Bazalt\\ORM\\Relation\\IRelationMany -->
<g id="edge33" class="edge"><title>\\Bazalt\\ORM\\Relation\\NestedSet&#45;&gt;\\Bazalt\\ORM\\Relation\\IRelationMany</title>
<path fill="none" stroke="black" stroke-dasharray="1,5" d="M559.339,-853.018C517.425,-854.151 449.065,-855.998 399.393,-857.341"/>
<polygon fill="none" stroke="black" points="398.995,-853.85 389.093,-857.619 399.184,-860.848 398.995,-853.85"/>
</g>
<!-- \\Iterator -->
<g id="node50" class="node"><title>\\Iterator</title>
<ellipse fill="none" stroke="black" cx="76" cy="-72" rx="38.9931" ry="18"/>
<text text-anchor="middle" x="76" y="-68.3" font-family="Times,serif" font-size="14.00" fill="gray">\Iterator</text>
</g>
<!-- \\Bazalt\\ORM\\Relation\\IRelationMany&#45;&gt;\\Iterator -->
<g id="edge37" class="edge"><title>\\Bazalt\\ORM\\Relation\\IRelationMany&#45;&gt;\\Iterator</title>
<path fill="none" stroke="black" d="M284.899,-854.417C262.822,-849.711 238.725,-840.378 224,-822 22.0824,-569.991 350.563,-353.66 152,-99 144.892,-89.8838 134.437,-83.8421 123.577,-79.8391"/>
<polygon fill="none" stroke="black" points="124.592,-76.4894 114.003,-76.8201 122.487,-83.1654 124.592,-76.4894"/>
</g>
<!-- \\Bazalt\\ORM\\Relation\\IRelationOne&#45;&gt;\\Iterator -->
<g id="edge38" class="edge"><title>\\Bazalt\\ORM\\Relation\\IRelationOne&#45;&gt;\\Iterator</title>
<path fill="none" stroke="black" d="M287.826,-1001.82C264.864,-996.745 239.161,-986.727 224,-967 106.056,-813.536 269.75,-252.613 152,-99 144.902,-89.7405 134.346,-83.6515 123.378,-79.649"/>
<polygon fill="none" stroke="black" points="124.299,-76.2701 113.711,-76.6415 122.22,-82.9541 124.299,-76.2701"/>
</g>
<!-- \\Bazalt\\ORM\\Plugin\\Timestampable -->
<g id="node31" class="node"><title>\\Bazalt\\ORM\\Plugin\\Timestampable</title>
<polygon fill="none" stroke="black" points="650,-790 546,-790 546,-754 650,-754 650,-790"/>
<text text-anchor="middle" x="598" y="-769.2" font-family="Courier,monospace" font-size="11.00">Timestampable</text>
</g>
<!-- \\Bazalt\\ORM\\Plugin\\AbstractPlugin -->
<g id="node33" class="node"><title>\\Bazalt\\ORM\\Plugin\\AbstractPlugin</title>
<polygon fill="none" stroke="black" points="392.5,-736 281.5,-736 281.5,-700 392.5,-700 392.5,-736"/>
<text text-anchor="start" x="303" y="-721.2" font-family="Courier,monospace" font-size="11.00">«abstract»</text>
<text text-anchor="start" x="289.5" y="-709.2" font-family="Courier,monospace" font-size="11.00">AbstractPlugin</text>
</g>
<!-- \\Bazalt\\ORM\\Plugin\\Timestampable&#45;&gt;\\Bazalt\\ORM\\Plugin\\AbstractPlugin -->
<g id="edge34" class="edge"><title>\\Bazalt\\ORM\\Plugin\\Timestampable&#45;&gt;\\Bazalt\\ORM\\Plugin\\AbstractPlugin</title>
<path fill="none" stroke="black" d="M545.83,-761.331C504.713,-752.759 446.72,-740.668 402.439,-731.435"/>
<polygon fill="none" stroke="black" points="403.144,-728.007 392.64,-729.392 401.716,-734.86 403.144,-728.007"/>
</g>
<!-- \\Bazalt\\ORM\\Plugin\\Serializable -->
<g id="node32" class="node"><title>\\Bazalt\\ORM\\Plugin\\Serializable</title>
<polygon fill="none" stroke="black" points="647,-736 549,-736 549,-700 647,-700 647,-736"/>
<text text-anchor="middle" x="598" y="-715.2" font-family="Courier,monospace" font-size="11.00">Serializable</text>
</g>
<!-- \\Bazalt\\ORM\\Plugin\\Serializable&#45;&gt;\\Bazalt\\ORM\\Plugin\\AbstractPlugin -->
<g id="edge35" class="edge"><title>\\Bazalt\\ORM\\Plugin\\Serializable&#45;&gt;\\Bazalt\\ORM\\Plugin\\AbstractPlugin</title>
<path fill="none" stroke="black" d="M548.891,-718C507.682,-718 447.98,-718 402.609,-718"/>
<polygon fill="none" stroke="black" points="402.575,-714.5 392.575,-718 402.575,-721.5 402.575,-714.5"/>
</g>
<!-- \\Bazalt\\ORM\\Plugin\\RelationsCounter -->
<g id="node34" class="node"><title>\\Bazalt\\ORM\\Plugin\\RelationsCounter</title>
<polygon fill="none" stroke="black" points="660.5,-682 535.5,-682 535.5,-646 660.5,-646 660.5,-682"/>
<text text-anchor="middle" x="598" y="-661.2" font-family="Courier,monospace" font-size="11.00">RelationsCounter</text>
</g>
<!-- \\Bazalt\\ORM\\Plugin\\RelationsCounter&#45;&gt;\\Bazalt\\ORM\\Plugin\\AbstractPlugin -->
<g id="edge36" class="edge"><title>\\Bazalt\\ORM\\Plugin\\RelationsCounter&#45;&gt;\\Bazalt\\ORM\\Plugin\\AbstractPlugin</title>
<path fill="none" stroke="black" d="M535.191,-677.748C508.948,-683.509 478.006,-690.202 450,-696 434.719,-699.164 418.241,-702.463 402.748,-705.515"/>
<polygon fill="none" stroke="black" points="401.871,-702.12 392.732,-707.481 403.219,-708.989 401.871,-702.12"/>
</g>
<!-- \\Bazalt\\ORM\\CacheAdapter -->
<g id="node35" class="node"><title>\\Bazalt\\ORM\\CacheAdapter</title>
<polygon fill="none" stroke="black" points="647,-628 549,-628 549,-592 647,-592 647,-628"/>
<text text-anchor="middle" x="598" y="-607.2" font-family="Courier,monospace" font-size="11.00">CacheAdapter</text>
</g>
<!-- \\Bazalt\\ORM\\BaseRecord -->
<g id="node37" class="node"><title>\\Bazalt\\ORM\\BaseRecord</title>
<polygon fill="none" stroke="black" points="379,-466 295,-466 295,-430 379,-430 379,-466"/>
<text text-anchor="start" x="303" y="-451.2" font-family="Courier,monospace" font-size="11.00">«abstract»</text>
<text text-anchor="start" x="303" y="-439.2" font-family="Courier,monospace" font-size="11.00">BaseRecord</text>
</g>
<!-- \\IteratorAggregate -->
<g id="node48" class="node"><title>\\IteratorAggregate</title>
<ellipse fill="none" stroke="black" cx="76" cy="-18" rx="75.2868" ry="18"/>
<text text-anchor="middle" x="76" y="-14.3" font-family="Times,serif" font-size="14.00" fill="gray">\IteratorAggregate</text>
</g>
<!-- \\Bazalt\\ORM\\BaseRecord&#45;&gt;\\IteratorAggregate -->
<g id="edge19" class="edge"><title>\\Bazalt\\ORM\\BaseRecord&#45;&gt;\\IteratorAggregate</title>
<path fill="none" stroke="black" stroke-dasharray="1,5" d="M294.777,-450.553C270.968,-449.71 242.22,-444.351 224,-426 102.583,-303.707 263.808,-176.136 152,-45 148.801,-41.2484 145.041,-38.0181 140.936,-35.2366"/>
<polygon fill="none" stroke="black" points="142.508,-32.103 132.098,-30.1344 139.008,-38.1653 142.508,-32.103"/>
</g>
<!-- \\Bazalt\\ORM\\Column -->
<g id="node38" class="node"><title>\\Bazalt\\ORM\\Column</title>
<polygon fill="none" stroke="black" points="626.5,-574 569.5,-574 569.5,-538 626.5,-538 626.5,-574"/>
<text text-anchor="middle" x="598" y="-553.2" font-family="Courier,monospace" font-size="11.00">Column</text>
</g>
<!-- \\Bazalt\\ORM\\Collection -->
<g id="node39" class="node"><title>\\Bazalt\\ORM\\Collection</title>
<polygon fill="none" stroke="black" points="640,-520 556,-520 556,-484 640,-484 640,-520"/>
<text text-anchor="middle" x="598" y="-499.2" font-family="Courier,monospace" font-size="11.00">Collection</text>
</g>
<!-- \\Bazalt\\ORM\\Record -->
<g id="node40" class="node"><title>\\Bazalt\\ORM\\Record</title>
<polygon fill="none" stroke="black" points="640,-466 556,-466 556,-430 640,-430 640,-466"/>
<text text-anchor="start" x="564" y="-451.2" font-family="Courier,monospace" font-size="11.00">«abstract»</text>
<text text-anchor="start" x="577.5" y="-439.2" font-family="Courier,monospace" font-size="11.00">Record</text>
</g>
<!-- \\Bazalt\\ORM\\Record&#45;&gt;\\Bazalt\\ORM\\BaseRecord -->
<g id="edge22" class="edge"><title>\\Bazalt\\ORM\\Record&#45;&gt;\\Bazalt\\ORM\\BaseRecord</title>
<path fill="none" stroke="black" d="M555.961,-448C510.817,-448 438.201,-448 389.326,-448"/>
<polygon fill="none" stroke="black" points="389.275,-444.5 379.275,-448 389.275,-451.5 389.275,-444.5"/>
</g>
<!-- \\Bazalt\\ORM -->
<g id="node41" class="node"><title>\\Bazalt\\ORM</title>
<polygon fill="none" stroke="black" points="625,-412 571,-412 571,-376 625,-376 625,-412"/>
<text text-anchor="middle" x="598" y="-391.2" font-family="Courier,monospace" font-size="11.00">ORM</text>
</g>
<!-- \\ORM_Connection_Mssql -->
<g id="node42" class="node"><title>\\ORM_Connection_Mssql</title>
<polygon fill="none" stroke="black" points="674,-196 522,-196 522,-160 674,-160 674,-196"/>
<text text-anchor="middle" x="598" y="-175.2" font-family="Courier,monospace" font-size="11.00">ORM_Connection_Mssql</text>
</g>
<!-- \\ORM_Connection_Abstract -->
<g id="node49" class="node"><title>\\ORM_Connection_Abstract</title>
<ellipse fill="none" stroke="black" cx="337" cy="-126" rx="112.38" ry="18"/>
<text text-anchor="middle" x="337" y="-122.3" font-family="Times,serif" font-size="14.00" fill="gray">\ORM_Connection_Abstract</text>
</g>
<!-- \\ORM_Connection_Mssql&#45;&gt;\\ORM_Connection_Abstract -->
<g id="edge20" class="edge"><title>\\ORM_Connection_Mssql&#45;&gt;\\ORM_Connection_Abstract</title>
<path fill="none" stroke="black" d="M521.861,-162.555C498.812,-157.847 473.369,-152.68 450,-148 439.987,-145.995 429.468,-143.906 419.05,-141.847"/>
<polygon fill="none" stroke="black" points="419.603,-138.389 409.114,-139.887 418.248,-145.257 419.603,-138.389"/>
</g>
<!-- \\ORM_Index_Unique -->
<g id="node43" class="node"><title>\\ORM_Index_Unique</title>
<polygon fill="none" stroke="black" points="660.5,-304 535.5,-304 535.5,-268 660.5,-268 660.5,-304"/>
<text text-anchor="middle" x="598" y="-283.2" font-family="Courier,monospace" font-size="11.00">ORM_Index_Unique</text>
</g>
<!-- \\ORM_Index_Abstract -->
<g id="node45" class="node"><title>\\ORM_Index_Abstract</title>
<polygon fill="none" stroke="black" points="406,-304 268,-304 268,-268 406,-268 406,-304"/>
<text text-anchor="start" x="303" y="-289.2" font-family="Courier,monospace" font-size="11.00">«abstract»</text>
<text text-anchor="start" x="276" y="-277.2" font-family="Courier,monospace" font-size="11.00">ORM_Index_Abstract</text>
</g>
<!-- \\ORM_Index_Unique&#45;&gt;\\ORM_Index_Abstract -->
<g id="edge23" class="edge"><title>\\ORM_Index_Unique&#45;&gt;\\ORM_Index_Abstract</title>
<path fill="none" stroke="black" d="M535.292,-286C499.581,-286 454.292,-286 416.115,-286"/>
<polygon fill="none" stroke="black" points="416.062,-282.5 406.062,-286 416.062,-289.5 416.062,-282.5"/>
</g>
<!-- \\ORM_Index_FullText -->
<g id="node44" class="node"><title>\\ORM_Index_FullText</title>
<polygon fill="none" stroke="black" points="667,-250 529,-250 529,-214 667,-214 667,-250"/>
<text text-anchor="middle" x="598" y="-229.2" font-family="Courier,monospace" font-size="11.00">ORM_Index_FullText</text>
</g>
<!-- \\ORM_Index_FullText&#45;&gt;\\ORM_Index_Abstract -->
<g id="edge24" class="edge"><title>\\ORM_Index_FullText&#45;&gt;\\ORM_Index_Abstract</title>
<path fill="none" stroke="black" d="M528.951,-246.188C494.29,-253.414 451.985,-262.235 416.011,-269.735"/>
<polygon fill="none" stroke="black" points="415.119,-266.346 406.044,-271.813 416.548,-273.198 415.119,-266.346"/>
</g>
<!-- \\ORM_Index_Foreign -->
<g id="node46" class="node"><title>\\ORM_Index_Foreign</title>
<polygon fill="none" stroke="black" points="663.5,-358 532.5,-358 532.5,-322 663.5,-322 663.5,-358"/>
<text text-anchor="middle" x="598" y="-337.2" font-family="Courier,monospace" font-size="11.00">ORM_Index_Foreign</text>
</g>
<!-- \\ORM_Index_Foreign&#45;&gt;\\ORM_Index_Abstract -->
<g id="edge25" class="edge"><title>\\ORM_Index_Foreign&#45;&gt;\\ORM_Index_Abstract</title>
<path fill="none" stroke="black" d="M532.311,-326.513C497.251,-319.203 453.65,-310.112 416.64,-302.396"/>
<polygon fill="none" stroke="black" points="416.892,-298.873 406.388,-300.258 415.463,-305.726 416.892,-298.873"/>
</g>
</g>
</svg>
